<?xml version="1.0" standalone="no"?>
<!DOCTYPE svg PUBLIC "-//W3C//DTD SVG 20010904//EN"
 "http://www.w3.org/TR/2001/REC-SVG-20010904/DTD/svg10.dtd">
<svg version="1.0" xmlns="http://www.w3.org/2000/svg"
 width="300.000000pt" height="79.000000pt" viewBox="0 0 300.000000 79.000000"
 preserveAspectRatio="xMidYMid meet">
<metadata>
Created by potrace 1.10, written by Peter Selinger 2001-2011
</metadata>
<g transform="translate(0.000000,79.000000) scale(0.100000,-0.100000)"
fill="#000000" stroke="none">
<path d="M408 729 c-11 -6 -18 -22 -18 -39 0 -25 -4 -30 -25 -30 -49 0 -134
-41 -180 -86 -25 -25 -45 -49 -45 -54 0 -5 -14 -22 -31 -40 -26 -26 -30 -36
-25 -63 4 -17 18 -43 31 -57 14 -14 43 -46 65 -71 26 -31 61 -56 103 -75 53
-24 74 -28 152 -28 147 0 209 33 323 172 40 49 42 87 5 129 -16 17 -43 50 -62
73 -37 46 -136 100 -183 100 -23 0 -28 5 -28 23 0 26 -28 57 -51 57 -8 0 -22
-5 -31 -11z m12 -125 c0 -28 3 -35 18 -32 13 3 16 12 14 36 -3 31 -2 32 30 26
78 -14 130 -37 175 -80 30 -28 43 -47 36 -50 -77 -33 -77 -126 0 -157 22 -10
-66 -83 -129 -107 -75 -28 -203 -25 -275 7 -55 24 -130 95 -108 101 31 10 59
46 59 77 0 31 -28 67 -58 76 -21 7 21 54 75 86 37 21 115 48 156 52 4 1 7 -15
7 -35z m-218 -159 c9 -21 8 -28 -7 -45 -30 -33 -45 -25 -45 25 0 38 3 45 20
45 12 0 25 -10 32 -25z m518 -20 c0 -30 -4 -45 -13 -45 -33 0 -50 53 -25 78
25 25 38 13 38 -33z"/>
<path d="M517 469 c-39 -22 -4 -79 35 -58 10 5 18 18 18 29 0 25 -30 41 -53
29z"/>
<path d="M317 463 c-12 -11 -8 -40 7 -52 26 -22 63 10 50 44 -6 15 -45 21 -57
8z"/>
<path d="M330 317 c0 -24 74 -50 124 -45 54 6 103 35 88 50 -7 7 -23 6 -52 -6
-50 -20 -67 -20 -104 -1 -35 19 -56 19 -56 2z"/>
<path d="M2003 563 c-16 -16 -18 -31 -15 -120 l3 -103 40 0 40 0 -2 110 c-2
95 -4 112 -20 120 -23 13 -24 13 -46 -7z m45 -26 c2 -11 -3 -17 -17 -17 -25 0
-38 19 -20 31 19 12 33 6 37 -14z m2 -112 c0 -58 -2 -65 -20 -65 -18 0 -20 7
-20 65 0 58 2 65 20 65 18 0 20 -7 20 -65z"/>
<path d="M967 563 c-4 -3 -7 -55 -7 -115 l0 -108 76 0 c72 0 77 2 105 31 19
21 29 26 29 16 0 -25 41 -47 88 -47 53 0 92 33 92 80 0 16 5 30 10 30 6 0 10
-18 10 -39 0 -51 21 -73 69 -69 31 3 36 7 39 31 2 19 -1 27 -12 27 -10 0 -16
9 -16 25 0 16 6 25 15 25 10 0 15 10 15 30 0 20 -5 30 -15 30 -9 0 -15 9 -15
24 0 22 -2 23 -40 13 -22 -6 -40 -16 -40 -23 0 -7 -6 -14 -14 -17 -9 -4 -13
-14 -9 -29 4 -20 3 -21 -9 -7 -47 57 -158 46 -174 -17 -6 -23 -7 -23 -19 -7
-10 14 -10 21 2 39 18 28 4 60 -33 74 -29 11 -137 13 -147 3z m159 -37 c16
-22 9 -43 -17 -51 -25 -8 -24 -18 3 -30 29 -13 34 -41 12 -66 -13 -15 -31 -19
-81 -19 l-63 0 0 96 0 96 66 -4 c49 -3 70 -9 80 -22z m304 -16 c0 -11 7 -20
15 -20 8 0 15 -7 15 -15 0 -8 -7 -15 -15 -15 -11 0 -15 -11 -15 -35 0 -22 6
-38 15 -41 27 -11 16 -25 -17 -22 -32 3 -33 5 -36 51 -2 33 -7 47 -18 47 -7 0
-14 7 -14 15 0 8 7 15 15 15 8 0 15 6 15 14 0 13 13 23 33 25 4 1 7 -8 7 -19z
m-122 -36 c26 -18 29 -59 6 -92 -11 -17 -25 -22 -56 -22 -52 0 -78 22 -78 66
0 39 29 64 75 64 17 0 41 -7 53 -16z"/>
<path d="M1030 498 c0 -26 3 -29 28 -26 19 2 27 9 27 22 0 13 -10 22 -27 27
-26 7 -28 5 -28 -23z"/>
<path d="M1030 410 c0 -23 5 -30 19 -30 26 0 52 27 45 45 -4 9 -19 15 -35 15
-26 0 -29 -4 -29 -30z"/>
<path d="M1232 458 c-28 -28 -2 -88 33 -75 24 10 31 58 10 74 -23 16 -28 16
-43 1z m34 -44 c-5 -13 -10 -14 -18 -6 -6 6 -8 18 -4 28 5 13 10 14 18 6 6 -6
8 -18 4 -28z"/>
<path d="M1490 455 l0 -115 69 0 c54 0 74 4 95 21 29 23 35 69 11 89 -12 10
-12 15 1 35 12 19 13 28 4 45 -15 28 -50 40 -121 40 l-59 0 0 -115z m140 82
c35 -17 37 -44 6 -58 -33 -15 -33 -25 -1 -33 20 -5 25 -13 25 -36 0 -38 -23
-50 -94 -50 l-56 0 0 95 0 95 48 0 c26 0 58 -6 72 -13z"/>
<path d="M1550 495 c0 -23 4 -26 28 -23 19 2 27 9 27 23 0 14 -8 21 -27 23
-24 3 -28 0 -28 -23z"/>
<path d="M1550 410 c0 -33 22 -40 54 -17 25 19 10 47 -25 47 -26 0 -29 -4 -29
-30z"/>
<path d="M2377 463 c-20 -60 -37 -111 -37 -115 0 -5 20 -8 45 -8 38 0 45 3 45
20 0 15 7 20 24 20 16 0 27 -7 31 -20 6 -18 15 -20 96 -20 l90 0 -3 113 -3
112 -42 3 -43 3 -1 -113 -1 -113 -36 113 -35 112 -46 0 -46 0 -38 -107z m144
-8 c16 -49 29 -91 29 -92 0 -2 -11 -3 -25 -3 -18 0 -25 5 -25 20 0 17 -7 20
-39 20 -31 0 -41 -4 -46 -20 -4 -12 -15 -20 -29 -20 l-23 0 29 83 c16 45 31
88 33 95 3 8 17 12 36 10 29 -3 32 -7 60 -93z m123 -2 c1 -90 1 -93 -21 -93
-22 0 -23 3 -23 96 0 92 1 95 22 92 20 -3 21 -9 22 -95z"/>
<path d="M2441 483 c-16 -57 -14 -63 20 -63 23 0 30 4 26 14 -3 8 -9 31 -13
50 -8 46 -20 46 -33 -1z"/>
<path d="M1690 425 l0 -85 40 0 40 0 0 50 c0 47 2 50 25 50 22 0 25 4 25 34
l0 34 -65 1 -65 1 0 -85z m60 48 c0 -15 1 -15 18 0 22 20 32 21 32 4 0 -7 -10
-17 -22 -22 -18 -8 -24 -20 -26 -52 -3 -35 -7 -43 -23 -43 -17 0 -19 7 -19 65
0 58 2 65 20 65 12 0 20 -7 20 -17z"/>
<path d="M1843 503 c-7 -2 -13 -18 -13 -33 0 -16 -5 -41 -12 -55 -8 -19 -8
-31 0 -50 11 -23 16 -25 88 -25 l76 0 -4 64 c-5 82 -24 106 -82 105 -23 0 -47
-3 -53 -6z m101 -29 c10 -10 16 -33 16 -65 0 -42 -3 -49 -20 -49 -21 0 -24 8
-20 49 1 19 -2 22 -15 17 -9 -3 -21 -6 -26 -6 -5 0 -9 -9 -9 -20 0 -12 7 -20
17 -20 12 0 14 -3 6 -11 -18 -18 -58 -7 -61 18 -4 25 31 53 66 53 15 0 22 5
19 13 -2 6 -20 12 -40 12 -36 0 -44 5 -30 18 13 13 82 7 97 -9z"/>
<path d="M2080 425 l0 -85 40 0 40 0 0 56 c0 34 4 53 10 49 6 -3 10 -28 10
-56 l0 -49 40 0 40 0 0 63 c0 93 -12 105 -105 106 l-75 0 0 -84z m63 53 c4
-10 7 -10 18 0 17 15 51 16 67 0 7 -7 12 -36 12 -65 0 -46 -3 -53 -19 -53 -17
0 -20 8 -23 48 -3 43 -5 47 -28 47 -23 0 -25 -4 -28 -47 -3 -40 -6 -48 -23
-48 -17 0 -19 7 -19 65 0 57 2 65 19 65 11 0 21 -6 24 -12z"/>
</g>
</svg>
