<?xml version="1.0" standalone="no"?>
<!DOCTYPE svg PUBLIC "-//W3C//DTD SVG 20010904//EN"
 "http://www.w3.org/TR/2001/REC-SVG-20010904/DTD/svg10.dtd">
<svg version="1.0" xmlns="http://www.w3.org/2000/svg"
 width="2613.000000pt" height="690.000000pt" viewBox="0 0 2613.000000 690.000000"
 preserveAspectRatio="xMidYMid meet">
<metadata>
Created by potrace 1.10, written by Peter Selinger 2001-2011
</metadata>
<g transform="translate(0.000000,690.000000) scale(0.100000,-0.100000)"
fill="#000000" stroke="none">
<path d="M1916 6652 c-64 -6 -128 -55 -170 -131 -16 -29 -18 -46 -12 -117 l6
-82 -73 -4 c-68 -4 -133 -17 -202 -40 -16 -5 -48 -14 -70 -19 -22 -6 -44 -14
-50 -20 -5 -5 -17 -9 -26 -9 -10 0 -30 -6 -46 -14 -15 -8 -62 -31 -103 -51
-100 -50 -109 -56 -151 -87 -20 -16 -41 -28 -47 -28 -11 0 -227 -210 -258
-251 -44 -58 -62 -88 -95 -155 -27 -56 -41 -74 -71 -89 -128 -62 -209 -232
-179 -372 7 -32 22 -78 33 -102 26 -54 97 -126 144 -146 26 -11 41 -27 60 -67
28 -59 35 -71 82 -140 129 -191 358 -364 612 -463 25 -9 60 -23 78 -31 18 -8
40 -14 48 -14 9 0 37 -6 63 -14 128 -40 289 -61 471 -61 122 1 286 14 325 27
17 5 53 13 80 18 72 12 136 30 168 46 16 8 35 14 44 14 8 0 27 6 41 13 15 8
43 21 62 30 106 47 138 64 240 132 89 59 290 255 313 305 4 8 16 29 26 45 32
49 61 105 61 116 0 13 41 48 57 49 19 0 111 89 128 123 31 60 55 141 55 182 0
113 -89 258 -189 308 -24 12 -46 29 -48 37 -30 88 -139 245 -240 341 -55 53
-175 149 -187 149 -3 0 -22 12 -43 26 -21 14 -47 30 -58 35 -11 5 -27 13 -35
18 -39 25 -180 82 -245 101 -16 4 -43 13 -60 18 -66 22 -134 36 -205 41 -73 6
-75 7 -72 31 1 14 3 54 4 90 2 56 -2 71 -26 107 -52 78 -135 114 -240 105z
m98 -163 c21 -16 26 -29 26 -64 0 -49 -13 -64 -38 -42 -30 25 -50 27 -77 5
-35 -27 -55 -17 -55 27 0 27 8 44 29 66 35 35 77 38 115 8z m-133 -301 c1 -7
0 -70 -1 -139 l-2 -126 32 -26 c39 -33 57 -34 94 -4 l29 23 -2 142 -2 142 28
0 c15 -1 55 -7 88 -15 33 -8 75 -15 94 -15 19 0 59 -7 90 -16 31 -8 81 -22
111 -31 75 -21 178 -61 220 -85 8 -4 21 -10 28 -13 26 -11 38 -16 57 -28 142
-87 245 -173 322 -270 32 -40 63 -78 71 -86 24 -25 9 -45 -51 -63 -71 -22
-135 -66 -176 -122 -105 -147 -91 -332 36 -460 54 -55 94 -77 153 -85 53 -7
63 -32 31 -71 -11 -14 -33 -41 -48 -60 -58 -72 -181 -184 -258 -233 -119 -77
-117 -76 -158 -93 -20 -9 -54 -25 -74 -35 -21 -11 -43 -19 -50 -19 -7 0 -27
-6 -45 -14 -40 -16 -115 -38 -223 -63 -66 -15 -122 -18 -315 -18 -240 0 -300
7 -441 51 -26 8 -55 14 -65 14 -11 0 -28 7 -38 15 -11 8 -28 15 -37 15 -10 0
-30 6 -46 14 -15 8 -62 31 -103 51 -118 59 -209 123 -295 210 -119 118 -165
176 -165 208 0 25 3 27 44 27 36 0 54 8 104 44 109 81 152 162 152 291 0 66
-5 94 -25 139 -26 58 -95 142 -130 157 -11 5 -27 13 -35 18 -8 5 -37 16 -65
24 -56 16 -62 25 -38 54 10 12 32 39 48 59 80 101 231 238 295 267 8 4 29 16
45 26 43 28 142 74 220 103 89 33 112 40 155 48 25 5 58 13 73 19 16 6 47 11
70 12 23 0 65 7 92 14 67 17 105 18 106 3z m-1062 -767 c67 -45 101 -103 101
-174 0 -89 -47 -157 -139 -197 -55 -25 -64 -25 -86 0 -17 18 -19 40 -19 183 0
89 3 174 7 190 7 24 12 27 50 27 30 0 55 -9 86 -29z m2411 -3 c0 -17 5 -61 11
-97 9 -50 9 -88 -1 -165 -7 -56 -17 -107 -22 -113 -12 -15 -54 -17 -62 -4 -3
5 -18 12 -33 16 -62 15 -133 118 -133 191 0 99 100 203 198 204 41 0 42 -1 42
-32z m-2686 -165 c-1 -49 -2 -91 -3 -95 -2 -14 -29 -8 -35 8 -11 28 -6 150 6
162 27 27 33 12 32 -75z m2864 70 c14 -27 13 -138 -2 -158 -24 -33 -35 -7 -34
78 0 45 2 85 5 90 7 12 22 8 31 -10z"/>
<path d="M1465 5453 c-50 -13 -95 -85 -95 -151 0 -50 3 -56 50 -102 46 -47 52
-50 99 -50 35 0 60 7 84 23 57 37 72 65 72 132 0 64 -14 93 -64 130 -25 19
-106 29 -146 18z"/>
<path d="M2333 5453 c-13 -2 -39 -24 -58 -47 -30 -37 -35 -51 -35 -94 0 -93
65 -162 155 -162 34 0 53 7 87 33 76 58 88 163 25 227 -46 47 -93 59 -174 43z"/>
<path d="M1505 4808 c-35 -30 -37 -79 -5 -113 13 -14 27 -25 32 -25 4 0 30
-13 56 -30 27 -16 56 -30 64 -30 8 0 19 -5 26 -12 15 -15 79 -33 187 -54 67
-13 94 -14 165 -4 47 7 111 21 143 31 53 18 72 26 117 50 8 5 39 21 69 36 29
15 62 41 74 57 l21 29 -21 36 c-35 62 -68 64 -148 11 -16 -11 -40 -24 -52 -29
-11 -5 -24 -15 -28 -20 -3 -6 -16 -11 -29 -11 -12 0 -27 -5 -33 -11 -5 -5 -50
-16 -99 -23 -140 -21 -257 2 -377 74 -94 56 -101 60 -119 60 -9 0 -29 -10 -43
-22z"/>
<path d="M9037 5906 c-113 -35 -156 -179 -77 -256 37 -36 38 -48 3 -52 l-28
-3 3 -360 c2 -197 6 -363 8 -367 3 -4 81 -8 175 -8 l169 0 0 370 c0 360 -1
370 -19 370 -30 0 -33 15 -8 42 13 14 31 42 41 63 16 32 17 44 7 77 -33 108
-152 162 -274 124z m156 -91 c32 -22 37 -31 37 -63 0 -58 -44 -96 -109 -95
-57 1 -107 30 -117 69 -23 92 99 150 189 89z m20 -575 l-1 -295 -96 -3 -95 -3
-3 283 c-2 156 -1 291 1 301 3 16 14 17 99 15 l95 -3 0 -295z"/>
<path d="M4340 5874 c-4 -61 0 -1008 4 -1011 9 -9 512 -2 576 8 138 22 240
102 270 211 15 58 37 81 44 46 3 -12 7 -35 10 -49 10 -47 69 -122 126 -159 90
-59 145 -72 290 -68 135 5 166 13 240 64 63 44 84 69 120 143 30 59 32 73 34
170 l1 106 45 0 45 0 5 -150 c7 -201 29 -249 143 -310 43 -22 59 -25 158 -25
90 0 117 4 149 20 l40 20 0 130 c0 124 -1 130 -20 130 -12 0 -34 -7 -50 -15
-25 -13 -30 -13 -50 3 -19 15 -21 25 -18 107 l3 90 55 0 c30 0 61 4 68 8 8 6
12 44 12 132 0 141 2 138 -90 133 l-45 -3 -1 107 c0 59 -3 110 -7 114 -3 4
-19 2 -34 -3 -15 -6 -55 -18 -88 -28 -33 -9 -80 -23 -105 -31 -25 -8 -54 -14
-65 -14 -11 0 -31 -7 -43 -16 -20 -14 -22 -21 -16 -60 8 -58 -5 -74 -56 -67
-30 4 -40 2 -41 -8 0 -8 0 -60 1 -115 1 -64 -3 -104 -9 -109 -6 -3 -14 2 -17
12 -67 217 -354 308 -611 191 -106 -49 -192 -168 -193 -269 0 -14 -6 -34 -14
-44 -12 -17 -14 -16 -25 18 -12 36 -58 90 -97 114 -18 11 -17 14 21 50 62 60
75 90 75 176 0 66 -3 78 -29 115 -41 55 -87 90 -151 114 -49 17 -89 20 -357
25 -170 3 -303 2 -303 -3z m542 -85 c145 -22 209 -70 215 -163 5 -69 -18 -114
-77 -145 -25 -13 -61 -27 -80 -30 -29 -5 -36 -11 -38 -34 -5 -38 14 -57 54
-57 45 0 109 -35 141 -77 50 -65 41 -179 -19 -245 -36 -39 -52 -49 -124 -75
-42 -15 -85 -18 -292 -18 l-244 0 1 420 c0 231 0 423 1 428 0 11 381 8 462 -4z
m1542 -77 c3 -5 1 -42 -3 -83 -5 -47 -5 -79 2 -87 7 -8 30 -12 71 -10 l61 3 6
-50 c3 -27 2 -55 -2 -61 -5 -6 -33 -9 -70 -6 -36 3 -64 0 -68 -6 -3 -5 -4 -73
-1 -150 6 -169 17 -194 91 -202 l44 -5 0 -60 0 -60 -106 0 c-101 1 -108 2
-144 29 -65 50 -75 86 -75 283 l0 172 -57 3 -58 3 4 50 c1 28 5 52 8 55 3 3
26 5 51 5 l47 0 5 70 5 70 40 8 c22 5 54 15 70 22 35 16 72 19 79 7z m-647
-188 c21 -9 49 -22 63 -28 14 -6 43 -30 66 -52 67 -66 91 -184 61 -294 -25
-90 -63 -136 -152 -186 -48 -27 -56 -29 -180 -28 -121 0 -134 2 -180 26 -54
28 -109 82 -140 138 -30 53 -27 218 4 278 25 46 116 132 141 132 8 1 26 7 40
15 37 21 227 20 277 -1z"/>
<path d="M4614 5677 c-2 -7 -3 -65 -2 -128 l3 -114 50 -3 c128 -9 218 46 218
131 0 54 -23 88 -78 110 -50 21 -183 24 -191 4z m159 -76 c33 -13 40 -37 20
-67 -13 -21 -22 -25 -57 -22 -34 3 -42 7 -44 27 -2 12 -1 34 2 47 7 26 35 31
79 15z"/>
<path d="M4617 5323 c-4 -3 -7 -64 -7 -135 0 -95 3 -128 13 -129 6 -1 53 -1
102 0 135 3 189 40 189 131 0 93 -71 140 -208 140 -46 0 -86 -3 -89 -7z m165
-83 c36 0 64 -40 49 -68 -20 -37 -123 -57 -135 -26 -10 27 -7 79 7 93 6 6 21
10 32 7 11 -3 32 -6 47 -6z"/>
<path d="M5543 5388 c-36 -39 -53 -85 -53 -145 0 -69 19 -128 52 -160 26 -25
37 -28 93 -28 71 0 94 14 126 77 14 27 19 58 19 113 0 63 -4 82 -25 115 -32
51 -51 60 -122 60 -54 0 -62 -3 -90 -32z m133 -62 c28 -21 28 -144 0 -175 -26
-29 -60 -26 -85 5 -26 33 -29 128 -5 162 18 26 60 29 90 8z"/>
<path d="M6687 5874 c-4 -7 -2 -932 3 -1006 0 -13 506 -9 578 3 36 7 86 21
111 32 195 86 234 373 66 483 -32 21 -31 28 5 61 58 51 74 90 75 174 0 91 -17
129 -82 178 -87 67 -114 72 -449 78 -171 3 -304 2 -307 -3z m545 -85 c127 -20
180 -53 213 -133 15 -36 15 -42 -1 -85 -23 -63 -74 -101 -159 -120 -27 -6 -30
-11 -30 -46 l0 -40 50 -5 c69 -7 137 -56 164 -120 19 -45 20 -51 6 -104 -17
-66 -35 -93 -86 -129 -78 -56 -112 -62 -378 -62 l-243 0 1 420 c0 231 1 423 1
428 0 11 381 8 462 -4z"/>
<path d="M6964 5677 c-2 -7 -3 -65 -2 -128 l3 -114 55 -3 c110 -6 194 33 207
97 14 71 -7 113 -70 142 -51 23 -185 27 -193 6z m145 -73 c75 -15 49 -94 -31
-94 l-38 0 0 43 c0 60 5 63 69 51z"/>
<path d="M6967 5323 c-4 -3 -7 -64 -7 -134 0 -93 3 -128 13 -131 6 -2 56 -2
110 0 98 4 98 4 138 41 35 34 39 43 39 88 0 95 -68 142 -206 143 -44 0 -84 -3
-87 -7z m159 -83 c43 0 72 -37 55 -69 -13 -23 -74 -45 -111 -39 -22 3 -25 9
-28 52 -3 50 9 71 36 61 8 -3 29 -5 48 -5z"/>
<path d="M10853 5868 c-6 -7 -16 -31 -23 -53 -7 -22 -18 -56 -25 -75 -7 -19
-18 -51 -24 -70 -7 -19 -17 -51 -23 -70 -5 -19 -14 -39 -19 -44 -5 -6 -9 -18
-9 -28 0 -9 -6 -32 -14 -50 -17 -41 -35 -93 -46 -133 -14 -48 -39 -119 -50
-137 -6 -10 -10 -25 -10 -34 0 -9 -6 -30 -14 -47 -8 -18 -16 -41 -19 -52 -9
-32 -37 -107 -53 -143 -8 -18 -14 -43 -12 -54 3 -22 5 -22 188 -19 108 2 190
7 198 13 6 6 12 19 12 30 0 11 7 44 16 74 l15 54 103 0 c120 0 124 -2 133 -81
10 -94 -1 -89 207 -89 142 0 185 3 189 13 3 7 -4 42 -15 78 -11 35 -26 89 -35
119 -9 30 -21 71 -28 90 -7 19 -21 62 -30 95 -10 33 -23 76 -30 95 -7 19 -34
103 -60 185 -26 83 -53 166 -60 185 -7 19 -21 62 -32 95 l-20 60 -200 3 c-153
2 -203 -1 -210 -10z m363 -113 c8 -22 18 -56 23 -75 9 -33 16 -56 46 -140 7
-19 27 -82 45 -140 18 -58 38 -121 45 -140 7 -19 22 -64 34 -100 11 -36 30
-90 42 -120 41 -107 46 -100 -74 -100 -121 0 -125 2 -134 81 -10 100 -9 99
-197 99 l-164 0 -16 -47 c-9 -26 -16 -57 -16 -70 0 -57 -12 -63 -125 -63 -78
0 -105 3 -105 13 0 6 12 39 25 72 14 33 25 64 25 68 0 5 6 23 13 40 18 42 37
95 47 132 5 17 32 95 60 175 28 80 55 159 60 175 16 55 48 143 60 164 10 21
17 21 151 19 l141 -3 14 -40z"/>
<path d="M11018 5668 c-10 -8 -18 -33 -20 -63 -4 -45 -21 -112 -65 -260 -8
-27 -16 -63 -16 -79 l-2 -29 132 -1 c150 -1 152 0 127 67 -9 23 -19 60 -24 82
-4 22 -12 54 -18 70 -17 49 -32 123 -32 156 0 61 -41 89 -82 57z m56 -277 c9
-27 16 -54 16 -60 0 -16 -35 -31 -59 -24 -21 5 -22 10 -16 51 9 58 23 95 34
88 5 -3 16 -28 25 -55z"/>
<path d="M11619 5873 c-4 -36 4 -988 8 -999 4 -11 39 -14 173 -14 98 0 171 4
175 10 3 5 6 230 6 500 0 270 -3 495 -6 500 -7 12 -355 14 -356 3z m276 -503
l0 -425 -100 0 -100 0 -3 415 c-1 228 0 421 3 428 3 9 30 12 102 10 l98 -3 0
-425z"/>
<path d="M8050 5623 c-8 -3 -33 -14 -54 -24 -35 -17 -41 -17 -56 -4 -13 12
-49 15 -178 15 -88 0 -163 -4 -166 -8 -3 -5 -6 -173 -8 -373 l-2 -364 169 -5
c94 -3 174 -2 179 2 6 5 9 80 7 181 -4 251 14 282 148 258 35 -7 65 -11 66 -9
2 2 5 72 7 155 l4 153 -32 15 c-33 15 -57 18 -84 8z m-186 -92 c4 0 5 -25 2
-55 -6 -48 -5 -54 13 -59 36 -9 55 3 75 44 11 22 34 49 53 60 35 22 89 23 87
2 -1 -7 -2 -40 -2 -73 l-2 -60 -53 0 c-43 0 -62 -6 -93 -28 -21 -16 -44 -35
-51 -43 -21 -25 -35 -142 -31 -259 l3 -115 -97 -3 -98 -3 0 294 c0 162 2 296
5 299 5 5 161 4 189 -1z"/>
<path d="M8390 5614 c-25 -7 -55 -14 -66 -14 -12 0 -43 -9 -69 -21 l-47 -21 7
-121 c4 -67 9 -129 11 -138 2 -9 -5 -24 -16 -34 -50 -46 -65 -86 -64 -175 0
-74 4 -90 26 -125 27 -43 56 -71 100 -98 38 -23 184 -24 216 -1 17 11 32 14
55 9 18 -5 100 -8 182 -9 l150 -1 -1 275 c-1 256 -3 278 -22 320 -53 114 -163
171 -329 169 -48 0 -108 -7 -133 -15z m298 -98 c99 -51 124 -133 120 -396 l-3
-175 -87 -3 -87 -3 -3 48 c-4 68 -29 69 -96 4 -55 -54 -102 -69 -184 -58 -86
12 -140 107 -117 205 26 104 106 148 299 161 l95 6 3 38 c3 39 -8 56 -57 89
-39 26 -158 24 -219 -3 -46 -21 -78 -17 -76 10 1 6 2 22 3 36 1 20 11 30 44
45 34 15 67 19 180 19 126 1 142 -1 185 -23z m-198 -146 c-20 -13 -80 -13 -80
0 0 6 21 10 48 10 34 0 43 -3 32 -10z"/>
<path d="M8535 5236 c-121 -20 -145 -38 -145 -107 0 -40 4 -51 31 -73 54 -46
134 -28 182 41 24 34 28 49 25 94 -2 29 -7 53 -13 54 -5 1 -41 -3 -80 -9z m10
-91 c0 -11 -12 -26 -27 -35 -25 -14 -29 -13 -45 3 -17 18 -17 19 6 38 30 25
66 22 66 -6z"/>
<path d="M9772 5600 c-51 -28 -52 -28 -63 -9 -9 18 -20 19 -177 17 l-167 -3
-5 -356 c-3 -196 -4 -363 -2 -372 3 -15 23 -17 178 -17 159 0 174 2 174 18 1
9 0 112 0 228 -1 196 1 211 19 228 25 23 56 8 66 -31 4 -16 6 -116 5 -223 -1
-107 -2 -201 -1 -207 1 -10 43 -13 176 -13 133 0 175 3 176 13 5 82 -5 514
-13 552 -13 63 -43 120 -76 145 -84 67 -201 79 -290 30z m-139 -69 c4 0 7 -23
7 -50 0 -42 3 -49 22 -54 17 -5 29 2 51 29 51 62 97 84 175 84 88 0 121 -21
159 -100 15 -30 17 -70 18 -265 l0 -230 -97 -3 c-54 -1 -98 1 -98 5 0 4 -2 99
-3 210 l-2 202 -29 30 c-25 26 -37 31 -75 31 -44 0 -59 -9 -113 -63 -1 -1 -4
-94 -7 -207 l-6 -205 -97 -3 -98 -3 0 294 c0 162 2 296 5 299 5 4 160 4 188
-1z"/>
</g>
</svg>
